<svg id="visual" viewBox="0 0 900 675" width="900" height="675" xmlns="http://www.w3.org/2000/svg" xmlns:xlink="http://www.w3.org/1999/xlink" version="1.1"><g transform="translate(28.67940042255475 118.32925850236961)"><path d="M161.8 -276.4C211.8 -219.6 256 -178.3 262.5 -129.9C269.1 -81.5 238 -25.9 218.4 23.4C198.9 72.7 190.9 115.6 165.3 141C139.8 166.4 96.6 174.3 55.2 185.3C13.7 196.3 -26.1 210.4 -68.7 209.2C-111.2 208 -156.5 191.4 -202.3 162.1C-248 132.9 -294.3 90.9 -311.7 38.4C-329.2 -14 -317.9 -77 -306.7 -156.2C-295.6 -235.3 -284.6 -330.6 -233.6 -386.9C-182.5 -443.3 -91.2 -460.6 -17.7 -433.1C55.9 -405.6 111.7 -333.2 161.8 -276.4" fill="#05386B"></path></g></svg>