<svg id="visual" viewBox="0 0 900 675" width="900" height="675" xmlns="http://www.w3.org/2000/svg" xmlns:xlink="http://www.w3.org/1999/xlink" version="1.1"><g transform="translate(443.7684115850567 305.6592120796846)"><path d="M46.1 -56.5C69.4 -56.7 104.7 -60.3 120.2 -48.4C135.6 -36.6 131.2 -9.2 119.3 11.4C107.4 32 88.1 45.8 73.9 66.3C59.7 86.7 50.5 113.9 32.1 127.6C13.7 141.4 -14 141.7 -42.2 136.6C-70.3 131.5 -98.9 121 -110 99.9C-121 78.8 -114.4 47.2 -114.7 18.9C-115 -9.3 -122.1 -34.2 -113 -50.6C-104 -67.1 -78.7 -75.2 -57.2 -75.9C-35.7 -76.6 -17.8 -70 -3.2 -64.9C11.4 -59.9 22.7 -56.4 46.1 -56.5" fill="#05386B"></path></g></svg>