<svg id="visual" viewBox="0 0 900 675" width="900" height="675" xmlns="http://www.w3.org/2000/svg" xmlns:xlink="http://www.w3.org/1999/xlink" version="1.1"><g transform="translate(898.5594371432459 696.676516340046)"><path d="M178.9 -206.5C213.2 -184.5 209.5 -110.4 219.6 -40.6C229.6 29.1 253.4 94.6 228.7 127.1C204 159.6 130.9 159.2 73.6 163.1C16.3 167 -25.2 175.1 -70 169C-114.9 162.8 -163.1 142.4 -194.2 104.4C-225.2 66.5 -239.2 10.9 -236.3 -48C-233.4 -106.9 -213.8 -169.1 -171.6 -189.8C-129.4 -210.5 -64.7 -189.6 3.8 -194.2C72.3 -198.7 144.6 -228.6 178.9 -206.5" fill="#05386B"></path></g></svg>