<svg id="visual" viewBox="0 0 900 675" width="900" height="675" xmlns="http://www.w3.org/2000/svg" xmlns:xlink="http://www.w3.org/1999/xlink" version="1.1"><rect x="0" y="0" width="900" height="675" fill="#000f1e"></rect><g fill="#8EE4AF"><circle r="49" cx="726" cy="539"></circle><circle r="10" cx="554" cy="578"></circle><circle r="45" cx="632" cy="408"></circle><circle r="39" cx="536" cy="426"></circle><circle r="31" cx="746" cy="35"></circle><circle r="27" cx="174" cy="624"></circle><circle r="30" cx="15" cy="596"></circle><circle r="38" cx="800" cy="403"></circle><circle r="42" cx="357" cy="672"></circle><circle r="18" cx="323" cy="386"></circle><circle r="26" cx="47" cy="319"></circle><circle r="40" cx="604" cy="232"></circle><circle r="15" cx="353" cy="39"></circle><circle r="38" cx="400" cy="232"></circle><circle r="17" cx="137" cy="280"></circle><circle r="40" cx="680" cy="159"></circle><circle r="46" cx="892" cy="295"></circle><circle r="37" cx="809" cy="602"></circle><circle r="14" cx="509" cy="279"></circle><circle r="47" cx="67" cy="30"></circle><circle r="9" cx="740" cy="307"></circle><circle r="43" cx="496" cy="43"></circle><circle r="45" cx="218" cy="69"></circle><circle r="15" cx="274" cy="506"></circle><circle r="46" cx="457" cy="369"></circle><circle r="32" cx="459" cy="490"></circle><circle r="19" cx="49" cy="151"></circle><circle r="14" cx="845" cy="141"></circle><circle r="45" cx="875" cy="520"></circle><circle r="45" cx="594" cy="108"></circle><circle r="15" cx="231" cy="220"></circle><circle r="13" cx="211" cy="375"></circle><circle r="40" cx="88" cy="479"></circle><circle r="17" cx="515" cy="182"></circle><circle r="28" cx="691" cy="652"></circle><circle r="46" cx="449" cy="619"></circle><circle r="12" cx="366" cy="545"></circle><circle r="28" cx="881" cy="50"></circle><circle r="47" cx="882" cy="672"></circle><circle r="37" cx="152" cy="149"></circle><circle r="22" cx="335" cy="151"></circle><circle r="42" cx="788" cy="222"></circle><circle r="45" cx="315" cy="287"></circle><circle r="27" cx="584" cy="2"></circle><circle r="21" cx="428" cy="122"></circle><circle r="12" cx="281" cy="607"></circle><circle r="38" cx="897" cy="395"></circle><circle r="30" cx="176" cy="525"></circle></g></svg>