<svg id="visual" viewBox="0 0 450 900" width="450" height="900" xmlns="http://www.w3.org/2000/svg" xmlns:xlink="http://www.w3.org/1999/xlink" version="1.1"><rect x="0" y="0" width="450" height="900" fill="#05386B"></rect><defs><linearGradient id="grad1_0" x1="0%" y1="0%" x2="100%" y2="100%"><stop offset="30%" stop-color="#8ee4af" stop-opacity="1"></stop><stop offset="70%" stop-color="#8ee4af" stop-opacity="1"></stop></linearGradient></defs><defs><linearGradient id="grad1_1" x1="0%" y1="0%" x2="100%" y2="100%"><stop offset="30%" stop-color="#8ee4af" stop-opacity="1"></stop><stop offset="70%" stop-color="#5acdaf" stop-opacity="1"></stop></linearGradient></defs><defs><linearGradient id="grad1_2" x1="0%" y1="0%" x2="100%" y2="100%"><stop offset="30%" stop-color="#13b5ae" stop-opacity="1"></stop><stop offset="70%" stop-color="#5acdaf" stop-opacity="1"></stop></linearGradient></defs><defs><linearGradient id="grad1_3" x1="0%" y1="0%" x2="100%" y2="100%"><stop offset="30%" stop-color="#13b5ae" stop-opacity="1"></stop><stop offset="70%" stop-color="#009daa" stop-opacity="1"></stop></linearGradient></defs><defs><linearGradient id="grad1_4" x1="0%" y1="0%" x2="100%" y2="100%"><stop offset="30%" stop-color="#0083a2" stop-opacity="1"></stop><stop offset="70%" stop-color="#009daa" stop-opacity="1"></stop></linearGradient></defs><defs><linearGradient id="grad1_5" x1="0%" y1="0%" x2="100%" y2="100%"><stop offset="30%" stop-color="#0083a2" stop-opacity="1"></stop><stop offset="70%" stop-color="#006a95" stop-opacity="1"></stop></linearGradient></defs><defs><linearGradient id="grad1_6" x1="0%" y1="0%" x2="100%" y2="100%"><stop offset="30%" stop-color="#005183" stop-opacity="1"></stop><stop offset="70%" stop-color="#006a95" stop-opacity="1"></stop></linearGradient></defs><defs><linearGradient id="grad1_7" x1="0%" y1="0%" x2="100%" y2="100%"><stop offset="30%" stop-color="#005183" stop-opacity="1"></stop><stop offset="70%" stop-color="#05386b" stop-opacity="1"></stop></linearGradient></defs><defs><linearGradient id="grad2_0" x1="0%" y1="0%" x2="100%" y2="100%"><stop offset="30%" stop-color="#8ee4af" stop-opacity="1"></stop><stop offset="70%" stop-color="#8ee4af" stop-opacity="1"></stop></linearGradient></defs><defs><linearGradient id="grad2_1" x1="0%" y1="0%" x2="100%" y2="100%"><stop offset="30%" stop-color="#5acdaf" stop-opacity="1"></stop><stop offset="70%" stop-color="#8ee4af" stop-opacity="1"></stop></linearGradient></defs><defs><linearGradient id="grad2_2" x1="0%" y1="0%" x2="100%" y2="100%"><stop offset="30%" stop-color="#5acdaf" stop-opacity="1"></stop><stop offset="70%" stop-color="#13b5ae" stop-opacity="1"></stop></linearGradient></defs><defs><linearGradient id="grad2_3" x1="0%" y1="0%" x2="100%" y2="100%"><stop offset="30%" stop-color="#009daa" stop-opacity="1"></stop><stop offset="70%" stop-color="#13b5ae" stop-opacity="1"></stop></linearGradient></defs><defs><linearGradient id="grad2_4" x1="0%" y1="0%" x2="100%" y2="100%"><stop offset="30%" stop-color="#009daa" stop-opacity="1"></stop><stop offset="70%" stop-color="#0083a2" stop-opacity="1"></stop></linearGradient></defs><defs><linearGradient id="grad2_5" x1="0%" y1="0%" x2="100%" y2="100%"><stop offset="30%" stop-color="#006a95" stop-opacity="1"></stop><stop offset="70%" stop-color="#0083a2" stop-opacity="1"></stop></linearGradient></defs><defs><linearGradient id="grad2_6" x1="0%" y1="0%" x2="100%" y2="100%"><stop offset="30%" stop-color="#006a95" stop-opacity="1"></stop><stop offset="70%" stop-color="#005183" stop-opacity="1"></stop></linearGradient></defs><defs><linearGradient id="grad2_7" x1="0%" y1="0%" x2="100%" y2="100%"><stop offset="30%" stop-color="#05386b" stop-opacity="1"></stop><stop offset="70%" stop-color="#005183" stop-opacity="1"></stop></linearGradient></defs><g transform="translate(450, 0)"><path d="M0 405C-42.3 375.2 -84.6 345.3 -137 330.7C-189.4 316.2 -252 316.8 -286.4 286.4C-320.7 256 -326.8 194.5 -341.8 141.6C-356.9 88.7 -380.9 44.3 -405 0L0 0Z" fill="#004477"></path><path d="M0 354.4C-37 328.3 -74 302.2 -119.9 289.4C-165.8 276.6 -220.5 277.2 -250.6 250.6C-280.6 224 -285.9 170.2 -299.1 123.9C-312.3 77.6 -333.3 38.8 -354.4 0L0 0Z" fill="#005d8d"></path><path d="M0 303.8C-31.7 281.4 -63.4 259 -102.8 248.1C-142.1 237.1 -189 237.6 -214.8 214.8C-240.5 192 -245.1 145.9 -256.4 106.2C-267.7 66.5 -285.7 33.3 -303.7 0L0 0Z" fill="#00779d"></path><path d="M0 253.1C-26.4 234.5 -52.8 215.8 -85.6 206.7C-118.4 197.6 -157.5 198 -179 179C-200.4 160 -204.2 121.6 -213.6 88.5C-223.1 55.4 -238.1 27.7 -253.1 0L0 0Z" fill="#0090a7"></path><path d="M0 202.5C-21.1 187.6 -42.3 172.7 -68.5 165.4C-94.7 158.1 -126 158.4 -143.2 143.2C-160.4 128 -163.4 97.2 -170.9 70.8C-178.4 44.3 -190.5 22.2 -202.5 0L0 0Z" fill="#00a9ad"></path><path d="M0 151.9C-15.9 140.7 -31.7 129.5 -51.4 124C-71 118.6 -94.5 118.8 -107.4 107.4C-120.3 96 -122.5 72.9 -128.2 53.1C-133.8 33.3 -142.9 16.6 -151.9 0L0 0Z" fill="#3dc1af"></path><path d="M0 101.3C-10.6 93.8 -21.1 86.3 -34.3 82.7C-47.4 79 -63 79.2 -71.6 71.6C-80.2 64 -81.7 48.6 -85.5 35.4C-89.2 22.2 -95.2 11.1 -101.2 0L0 0Z" fill="#74d9af"></path><path d="M0 50.6C-5.3 46.9 -10.6 43.2 -17.1 41.3C-23.7 39.5 -31.5 39.6 -35.8 35.8C-40.1 32 -40.8 24.3 -42.7 17.7C-44.6 11.1 -47.6 5.5 -50.6 0L0 0Z" fill="#8ee4af"></path></g><g transform="translate(0, 900)"><path d="M0 -405C54.4 -400.3 108.8 -395.7 155 -374.2C201.2 -352.7 239.2 -314.3 275.8 -275.8C312.3 -237.3 347.3 -198.7 368.6 -152.7C389.9 -106.7 397.5 -53.4 405 0L0 0Z" fill="#004477"></path><path d="M0 -354.4C47.6 -350.3 95.2 -346.2 135.6 -327.4C176 -308.6 209.3 -275 241.3 -241.3C273.3 -207.6 303.9 -173.8 322.5 -133.6C341.2 -93.4 347.8 -46.7 354.4 0L0 0Z" fill="#005d8d"></path><path d="M0 -303.7C40.8 -300.3 81.6 -296.8 116.2 -280.6C150.9 -264.5 179.4 -235.7 206.8 -206.8C234.2 -178 260.5 -149 276.5 -114.5C292.4 -80 298.1 -40 303.8 0L0 0Z" fill="#00779d"></path><path d="M0 -253.1C34 -250.2 68 -247.3 96.9 -233.9C125.7 -220.4 149.5 -196.4 172.4 -172.4C195.2 -148.3 217.1 -124.2 230.4 -95.4C243.7 -66.7 248.4 -33.3 253.1 0L0 0Z" fill="#0090a7"></path><path d="M0 -202.5C27.2 -200.2 54.4 -197.8 77.5 -187.1C100.6 -176.3 119.6 -157.1 137.9 -137.9C156.2 -118.6 173.7 -99.3 184.3 -76.3C195 -53.4 198.7 -26.7 202.5 0L0 0Z" fill="#00a9ad"></path><path d="M0 -151.9C20.4 -150.1 40.8 -148.4 58.1 -140.3C75.4 -132.2 89.7 -117.9 103.4 -103.4C117.1 -89 130.3 -74.5 138.2 -57.3C146.2 -40 149 -20 151.9 0L0 0Z" fill="#3dc1af"></path><path d="M0 -101.2C13.6 -100.1 27.2 -98.9 38.7 -93.5C50.3 -88.2 59.8 -78.6 68.9 -68.9C78.1 -59.3 86.8 -49.7 92.2 -38.2C97.5 -26.7 99.4 -13.3 101.3 0L0 0Z" fill="#74d9af"></path><path d="M0 -50.6C6.8 -50 13.6 -49.5 19.4 -46.8C25.1 -44.1 29.9 -39.3 34.5 -34.5C39 -29.7 43.4 -24.8 46.1 -19.1C48.7 -13.3 49.7 -6.7 50.6 0L0 0Z" fill="#8ee4af"></path></g></svg>