<svg id="visual" viewBox="0 0 450 900" width="450" height="900" xmlns="http://www.w3.org/2000/svg" xmlns:xlink="http://www.w3.org/1999/xlink" version="1.1"><rect x="0" y="0" width="450" height="900" fill="#000f1e"></rect><g fill="#001e22"><circle r="40" cx="340" cy="111"></circle><circle r="8" cx="26" cy="804"></circle><circle r="36" cx="131" cy="348"></circle><circle r="14" cx="124" cy="863"></circle><circle r="32" cx="110" cy="243"></circle><circle r="19" cx="175" cy="457"></circle><circle r="9" cx="233" cy="874"></circle><circle r="23" cx="418" cy="41"></circle><circle r="20" cx="226" cy="66"></circle><circle r="27" cx="299" cy="295"></circle><circle r="35" cx="202" cy="686"></circle><circle r="23" cx="422" cy="396"></circle><circle r="36" cx="64" cy="448"></circle><circle r="10" cx="383" cy="579"></circle><circle r="8" cx="171" cy="124"></circle><circle r="21" cx="255" cy="561"></circle><circle r="17" cx="383" cy="193"></circle><circle r="10" cx="302" cy="473"></circle><circle r="17" cx="337" cy="382"></circle><circle r="14" cx="377" cy="867"></circle><circle r="26" cx="117" cy="515"></circle><circle r="29" cx="6" cy="573"></circle><circle r="24" cx="31" cy="29"></circle><circle r="31" cx="25" cy="234"></circle><circle r="21" cx="16" cy="319"></circle><circle r="8" cx="322" cy="679"></circle><circle r="26" cx="133" cy="619"></circle><circle r="35" cx="416" cy="771"></circle><circle r="17" cx="255" cy="746"></circle><circle r="27" cx="425" cy="488"></circle><circle r="10" cx="57" cy="114"></circle><circle r="16" cx="167" cy="767"></circle><circle r="9" cx="293" cy="211"></circle><circle r="32" cx="70" cy="732"></circle><circle r="7" cx="417" cy="685"></circle><circle r="20" cx="39" cy="894"></circle><circle r="10" cx="238" cy="354"></circle><circle r="31" cx="320" cy="3"></circle><circle r="23" cx="336" cy="790"></circle><circle r="13" cx="440" cy="261"></circle><circle r="11" cx="169" cy="4"></circle><circle r="34" cx="211" cy="234"></circle><circle r="28" cx="15" cy="672"></circle><circle r="10" cx="439" cy="128"></circle></g></svg>