<svg id="visual" viewBox="0 0 900 675" width="900" height="675" xmlns="http://www.w3.org/2000/svg" xmlns:xlink="http://www.w3.org/1999/xlink" version="1.1"><rect x="0" y="0" width="900" height="675" fill="#000f1e"></rect><g fill="#00313a"><circle r="49" cx="773" cy="545"></circle><circle r="10" cx="517" cy="485"></circle><circle r="15" cx="31" cy="156"></circle><circle r="23" cx="825" cy="218"></circle><circle r="24" cx="596" cy="605"></circle><circle r="33" cx="212" cy="669"></circle><circle r="13" cx="703" cy="103"></circle><circle r="36" cx="378" cy="567"></circle><circle r="34" cx="388" cy="464"></circle><circle r="30" cx="105" cy="598"></circle><circle r="40" cx="288" cy="407"></circle><circle r="28" cx="714" cy="314"></circle><circle r="31" cx="48" cy="444"></circle><circle r="34" cx="271" cy="154"></circle><circle r="9" cx="509" cy="30"></circle><circle r="35" cx="669" cy="198"></circle><circle r="36" cx="611" cy="406"></circle><circle r="12" cx="201" cy="332"></circle><circle r="42" cx="102" cy="336"></circle><circle r="42" cx="316" cy="281"></circle><circle r="32" cx="652" cy="9"></circle><circle r="36" cx="571" cy="210"></circle><circle r="18" cx="855" cy="447"></circle><circle r="12" cx="429" cy="235"></circle><circle r="10" cx="441" cy="334"></circle><circle r="20" cx="133" cy="55"></circle><circle r="19" cx="429" cy="97"></circle><circle r="31" cx="787" cy="648"></circle><circle r="11" cx="864" cy="16"></circle><circle r="11" cx="477" cy="624"></circle><circle r="34" cx="102" cy="231"></circle><circle r="34" cx="833" cy="340"></circle><circle r="31" cx="237" cy="37"></circle><circle r="13" cx="2" cy="596"></circle><circle r="21" cx="192" cy="465"></circle><circle r="9" cx="886" cy="552"></circle><circle r="34" cx="9" cy="30"></circle><circle r="24" cx="353" cy="672"></circle><circle r="24" cx="617" cy="303"></circle><circle r="33" cx="801" cy="112"></circle><circle r="40" cx="726" cy="413"></circle><circle r="43" cx="677" cy="516"></circle><circle r="37" cx="401" cy="3"></circle><circle r="41" cx="3" cy="293"></circle><circle r="34" cx="279" cy="541"></circle><circle r="38" cx="204" cy="225"></circle><circle r="24" cx="602" cy="109"></circle><circle r="25" cx="685" cy="669"></circle><circle r="17" cx="883" cy="669"></circle><circle r="13" cx="753" cy="14"></circle></g></svg>